<?xml version="1.0" standalone="no"?>
<!DOCTYPE svg PUBLIC "-//W3C//DTD SVG 20010904//EN"
 "http://www.w3.org/TR/2001/REC-SVG-20010904/DTD/svg10.dtd">
<svg version="1.0" xmlns="http://www.w3.org/2000/svg"
 width="3000.000000pt" height="3000.000000pt" viewBox="0 0 3000.000000 3000.000000"
 preserveAspectRatio="xMidYMid meet">
<metadata>
Created by potrace 1.14, written by Peter Selinger 2001-2017
</metadata>
<g transform="translate(0.000000,3000.000000) scale(0.100000,-0.100000)"
fill="#000000" stroke="none">
<path d="M4360 29984 c0 -8 -15 -21 -33 -29 -104 -43 -209 -172 -233 -285 -12
-55 -14 -1221 -14 -7615 0 -4530 4 -7572 9 -7606 19 -114 106 -248 182 -280
16 -6 29 -15 29 -19 0 -11 78 -38 130 -46 25 -4 50 -11 57 -16 7 -6 36 -2 80
10 37 11 84 23 103 26 44 8 133 66 182 120 21 23 53 70 71 106 l32 65 6 1200
c4 660 5 3497 4 6305 -1 2808 0 5573 3 6145 l5 1040 9494 0 9493 0 -2 -480
c-2 -264 2 -1234 9 -2155 9 -1224 11 -3794 6 -9549 l-6 -7874 -1432 7 c-1587
8 -1507 11 -1624 -56 -82 -47 -141 -112 -186 -203 -36 -73 -40 -87 -43 -177
-4 -95 -3 -101 28 -166 62 -126 159 -216 280 -258 53 -18 111 -19 1513 -24
l1458 -5 -1 -1324 c0 -729 -3 -1327 -6 -1330 -3 -3 -4338 -6 -9632 -6 -8263 0
-9631 2 -9652 14 -24 14 -168 120 -254 188 -23 18 -57 44 -76 58 -19 14 -49
35 -67 47 -17 13 -57 43 -90 68 -32 25 -71 54 -87 65 -41 28 -74 53 -152 112
-38 28 -87 65 -109 81 -22 16 -86 62 -142 103 -55 41 -120 87 -142 102 -23 16
-39 33 -36 38 4 5 59 9 123 9 208 1 340 15 414 46 112 46 194 132 241 253 17
43 22 78 22 151 0 91 -2 100 -37 171 -62 126 -134 193 -257 239 -41 16 -83 19
-285 21 -259 2 -272 6 -192 53 25 14 51 32 58 39 7 7 119 92 248 189 129 97
255 191 280 210 25 19 117 88 205 154 88 66 198 149 244 184 l84 65 336 2
c185 2 3439 4 7231 6 l6895 3 57 21 c91 34 112 48 185 120 82 81 123 174 123
278 0 199 -78 331 -246 416 l-87 44 -6721 0 c-3696 0 -6889 -2 -7094 -3 l-372
-4 -6 1764 c-6 1931 -2 1816 -65 1912 -65 98 -167 167 -278 187 -31 6 -70 17
-87 24 -27 11 -32 10 -42 -5 -7 -11 -30 -20 -64 -24 -51 -7 -65 -13 -154 -63
-65 -36 -111 -91 -166 -203 l-23 -45 -5 -1870 c-3 -1028 -9 -1878 -13 -1887
-8 -16 -121 -108 -259 -210 -35 -26 -90 -67 -123 -92 -33 -25 -98 -73 -145
-107 -47 -35 -92 -69 -100 -76 -8 -7 -62 -48 -120 -90 -58 -43 -112 -84 -120
-90 -8 -7 -53 -41 -99 -75 -46 -35 -107 -80 -135 -101 -28 -21 -62 -46 -74
-55 -13 -9 -61 -45 -105 -79 -45 -34 -98 -74 -117 -88 -65 -48 -205 -154 -231
-174 -15 -12 -68 -51 -118 -88 -101 -76 -187 -140 -273 -205 -32 -24 -84 -63
-117 -86 -56 -41 -97 -82 -147 -149 -12 -15 -34 -65 -49 -110 -24 -70 -27 -93
-22 -155 5 -78 39 -176 79 -229 35 -48 116 -122 184 -171 34 -23 87 -63 119
-88 32 -25 65 -49 74 -55 9 -5 43 -30 75 -55 33 -25 100 -75 150 -113 137
-101 175 -131 193 -147 9 -8 33 -26 54 -40 20 -14 75 -54 121 -90 45 -36 96
-73 111 -83 16 -10 36 -26 46 -35 19 -17 580 -438 696 -522 35 -25 88 -65 120
-90 32 -25 65 -49 74 -55 9 -5 42 -30 75 -55 32 -25 72 -55 89 -67 17 -13 48
-39 69 -59 l38 -35 2 -1417 c3 -1350 4 -1419 21 -1464 11 -27 22 -48 27 -48 4
0 11 -11 14 -24 3 -13 38 -54 78 -90 57 -52 89 -72 151 -96 l79 -30 748 0
c604 0 750 -3 758 -13 8 -9 12 -212 14 -658 l3 -644 36 -75 c43 -88 132 -183
197 -211 23 -10 45 -25 48 -34 6 -13 1060 -15 10104 -15 9609 0 10099 1 10104
18 3 9 25 25 49 35 55 22 137 102 177 172 63 109 60 11 60 2292 0 2308 -7
2103 69 2103 50 0 208 28 232 40 10 6 42 15 70 20 29 6 75 21 103 34 28 13 64
26 80 30 17 4 41 16 55 26 14 10 42 25 61 34 58 27 199 116 245 155 65 55 275
272 299 308 14 21 39 57 56 81 16 23 39 61 51 85 12 23 27 49 34 57 7 8 18 33
25 55 7 22 18 47 25 55 7 8 21 42 30 75 10 33 24 72 31 87 12 24 34 131 64
313 5 28 9 370 9 761 1 672 0 718 -19 820 -34 184 -42 216 -61 262 -11 24 -19
51 -19 59 0 16 -57 145 -85 193 -8 14 -24 44 -35 66 -11 23 -27 47 -35 54 -8
7 -15 17 -15 23 0 19 -115 160 -210 257 -106 108 -310 262 -388 291 -15 6 -34
16 -42 23 -8 8 -33 19 -55 26 -22 7 -60 23 -85 36 -25 13 -53 24 -63 24 -9 0
-50 11 -89 25 -43 15 -117 30 -185 36 -62 7 -121 18 -131 25 -16 12 -17 275
-22 4961 -5 3749 -9 4960 -18 4996 -29 116 -119 222 -243 284 -72 36 -121 46
-229 45 -69 -1 -83 -4 -155 -43 -135 -71 -217 -176 -249 -319 -3 -14 -6 -2252
-7 -4975 0 -2722 -3 -4952 -4 -4955 -2 -3 -225 -3 -497 0 l-493 5 0 9203 0
9202 65 -7 c36 -4 259 -7 495 -7 l430 -1 3 -3275 c3 -1981 8 -3292 13 -3319
16 -72 58 -149 113 -205 89 -92 205 -136 355 -136 73 0 93 4 149 31 122 57
214 160 250 278 16 52 17 297 20 3571 3 3923 8 3628 -65 3740 -67 102 -136
157 -244 194 l-76 26 -740 0 c-699 0 -741 1 -756 18 -15 16 -17 84 -19 667 -3
556 -5 654 -18 677 -8 15 -25 47 -38 72 -29 56 -129 150 -176 166 -19 6 -38
20 -41 31 -6 19 -122 19 -10111 19 -9122 0 -10104 -2 -10104 -16z m22005
-21829 c334 -4 474 -13 500 -35 5 -4 21 -10 35 -12 14 -2 24 -9 23 -15 -2 -7
4 -10 12 -7 9 4 15 0 15 -10 0 -9 5 -16 11 -16 5 0 7 5 4 10 -12 19 4 10 31
-17 15 -16 21 -19 13 -9 -12 17 -12 19 1 11 8 -5 23 -19 33 -32 10 -13 23 -21
28 -17 5 3 27 -13 48 -35 21 -22 41 -38 44 -34 4 3 10 -3 13 -13 4 -10 20 -32
36 -47 16 -15 26 -32 23 -38 -4 -5 -1 -8 5 -7 13 3 80 -119 105 -192 8 -25 19
-103 23 -175 12 -177 13 -811 2 -839 -5 -15 -16 -23 -29 -22 -28 1 -29 19 -2
31 11 5 21 18 21 28 0 10 -4 16 -9 13 -8 -5 -11 28 -15 149 -1 28 -5 56 -10
64 -7 11 -6 12 5 6 11 -7 12 -6 2 6 -6 8 -12 46 -14 84 -1 39 -7 76 -13 84 -6
8 -6 12 -1 9 6 -4 11 9 12 30 4 65 8 442 5 432 -2 -6 -12 0 -23 12 -10 13 -19
20 -20 16 -1 -5 -3 -12 -4 -18 -1 -5 -3 -24 -4 -41 0 -17 -5 -28 -11 -24 -5 3
-10 1 -10 -5 0 -7 -6 -5 -15 4 -8 8 -15 22 -15 31 0 9 -4 13 -10 10 -6 -4 -10
5 -10 21 0 32 -8 28 -14 -7 -2 -13 -5 -26 -6 -29 -2 -3 -2 -9 -1 -13 1 -5 -3
-6 -9 -2 -8 5 -7 11 1 21 11 14 2 19 -24 15 -5 -1 -6 3 -2 8 3 6 12 8 20 4 10
-3 15 1 15 13 0 16 -2 17 -10 4 -5 -8 -10 -11 -10 -7 0 4 -8 3 -19 -2 -14 -8
-23 -6 -37 10 -13 14 -14 20 -4 17 7 -2 16 6 18 17 3 16 1 18 -9 8 -7 -7 -18
-13 -23 -13 -7 0 -7 3 0 8 9 5 8 11 -2 20 -12 11 -14 9 -14 -13 0 -15 -4 -24
-10 -20 -5 3 -10 0 -10 -7 0 -9 -2 -10 -8 -2 -5 9 -11 8 -20 -2 -11 -12 -8
-14 15 -15 15 -1 31 -1 36 0 4 0 7 -5 7 -13 0 -20 -30 -29 -36 -11 -5 11 -10
12 -27 2 -34 -19 -38 -31 -14 -39 19 -5 18 -6 -8 -8 -30 -2 -30 -2 -5 -10 l25
-8 -25 -2 c-23 -1 -23 -2 -5 -10 18 -8 18 -9 2 -9 -10 -1 -15 -5 -12 -11 4 -6
-6 -10 -22 -11 l-28 -1 25 -8 c18 -6 8 -8 -40 -9 -36 -1 -60 -5 -53 -9 9 -5 6
-11 -9 -21 -19 -12 -20 -11 -15 8 3 14 0 21 -9 21 -8 0 -14 -9 -14 -20 0 -40
-40 -16 -43 26 -1 16 -6 32 -12 36 -6 5 -5 8 3 8 6 0 12 4 12 9 0 6 -16 7 -35
4 -23 -4 -35 -2 -35 6 0 6 -11 11 -25 11 -17 0 -24 5 -23 18 3 38 -3 61 -14
58 -7 -1 -9 -1 -5 2 4 2 2 11 -5 20 -10 12 -10 14 0 8 6 -4 12 -2 12 3 0 18
-47 12 -54 -6 -5 -12 -9 -14 -18 -5 -15 15 -31 16 -22 1 4 -8 0 -8 -15 0 -11
7 -21 16 -21 21 0 13 -93 0 -102 -14 -4 -6 -2 -14 4 -17 6 -4 8 -14 5 -23 -5
-13 1 -16 31 -17 20 0 31 -3 24 -6 -10 -4 -9 -8 4 -18 15 -10 13 -11 -13 -8
-22 4 -30 1 -30 -11 0 -8 4 -13 8 -10 4 2 11 0 14 -6 4 -6 3 -10 -2 -9 -4 1
-33 1 -64 0 -42 -1 -56 -5 -56 -16 0 -8 3 -12 7 -10 3 2 12 0 20 -6 12 -7 12
-9 -3 -9 -10 0 -15 -4 -12 -10 4 -6 -9 -10 -33 -10 -27 0 -39 -4 -39 -15 0
-10 4 -12 12 -5 8 7 12 5 12 -5 0 -8 -7 -15 -16 -15 -14 0 -14 -2 -1 -10 10
-6 3 -9 -27 -7 -45 1 -53 18 -13 28 14 4 -32 7 -101 8 -105 1 -126 -1 -126
-14 0 -10 4 -12 12 -5 17 14 26 1 19 -29 -4 -20 -3 -23 5 -11 8 11 11 12 11 2
0 -7 6 -10 13 -7 6 4 4 0 -5 -8 -10 -8 -14 -18 -10 -22 4 -4 -4 -5 -18 -1 -14
4 -59 9 -100 11 -54 3 -65 2 -40 -4 l35 -8 -37 -2 c-32 -1 -38 2 -38 19 0 16
-7 20 -30 20 -16 0 -30 5 -30 10 0 6 -15 11 -32 12 l-33 1 33 4 c26 4 32 9 32
29 0 19 -5 24 -27 25 l-28 2 28 4 c18 3 27 10 27 23 0 10 6 21 13 23 6 3 -1 6
-18 8 -27 2 -26 3 10 9 l40 7 -55 3 -55 3 60 7 60 7 -60 1 c-36 1 -66 -3 -73
-10 -15 -15 -16 -31 0 -22 7 4 8 3 4 -5 -10 -15 -29 -3 -22 15 3 7 1 16 -4 19
-6 4 -10 -7 -10 -24 0 -27 -3 -31 -28 -31 -37 0 -40 29 -3 31 25 1 25 2 -3 8
-39 8 -39 24 -1 32 19 4 -2 7 -55 8 -59 1 -80 4 -70 11 10 6 11 10 3 10 -7 0
-13 5 -13 11 0 5 5 7 12 3 7 -4 8 -3 4 5 -4 6 -12 9 -17 6 -5 -4 -9 -1 -9 5 0
6 -5 8 -12 4 -9 -5 -8 -2 1 9 12 15 12 17 0 12 -10 -4 -15 2 -16 17 -2 16 0
19 6 10 7 -11 9 -10 14 2 4 9 2 16 -4 16 -6 0 -8 4 -5 9 4 5 0 12 -6 14 -7 3
-2 6 12 6 20 1 22 3 10 11 -8 5 -10 10 -5 10 6 0 15 10 20 23 6 13 17 21 29
19 11 -2 15 1 11 7 -6 10 16 16 40 11 6 -1 7 1 3 5 -8 8 20 39 43 47 10 4 16
19 17 45 l1 38 -13 -30 c-10 -25 -13 -26 -19 -12 -4 11 -3 16 3 12 6 -3 10 3
10 15 0 17 -5 20 -34 18 -19 -1 -32 -6 -30 -10 3 -4 0 -8 -5 -8 -6 0 -11 5
-11 10 0 22 -21 8 -34 -22 -8 -18 -15 -27 -15 -20 -1 6 -6 12 -12 12 -5 0 -7
-6 -3 -12 6 -10 4 -10 -7 0 -16 14 -33 16 -24 2 9 -15 -1 -12 -14 4 -10 12 -8
14 14 12 14 -2 28 1 31 5 3 5 -9 9 -25 9 -18 0 -31 5 -32 13 0 8 -2 8 -6 -2
-5 -11 -7 -11 -14 0 -7 12 -9 11 -9 -1 0 -13 -1 -13 -10 0 -9 13 -10 13 -10 0
0 -13 -1 -13 -10 0 -9 13 -10 13 -10 0 0 -13 -1 -13 -10 0 -6 10 -10 11 -10 3
0 -7 -5 -13 -11 -13 -5 0 -7 5 -3 12 4 7 3 8 -5 4 -14 -9 4 -37 21 -33 6 1 12
-6 13 -16 3 -14 0 -16 -10 -7 -18 15 -65 -15 -65 -41 0 -16 8 -19 43 -20 58
-1 79 -6 88 -20 9 -14 1 -39 -13 -39 -5 0 -6 -5 -2 -11 5 -8 8 -8 14 0 5 9 10
8 19 -2 10 -13 -6 -15 -121 -15 -94 1 -118 3 -83 8 l50 7 -55 2 c-41 2 -50 5
-35 11 18 8 17 9 -7 9 -14 1 -29 -5 -31 -11 -3 -8 -6 -6 -6 5 -1 13 8 17 37
19 l37 1 -40 5 c-36 4 -38 6 -15 12 22 7 20 8 -14 9 -22 1 -36 4 -33 7 9 9
-12 46 -22 39 -11 -6 -44 62 -36 75 4 6 10 8 14 5 5 -2 17 2 27 10 18 14 18
14 -4 10 -20 -4 -22 -2 -11 11 6 8 9 17 5 21 -3 3 -6 1 -6 -6 0 -7 -5 -9 -10
-6 -6 4 -8 11 -5 16 3 5 -1 6 -10 3 -10 -4 -15 -17 -13 -39 1 -18 -4 -41 -12
-50 -10 -12 -10 -19 -2 -27 7 -7 12 -23 12 -36 0 -13 4 -21 9 -18 4 3 8 -16 8
-43 0 -43 -2 -49 -18 -46 -11 2 -19 0 -19 -5 0 -4 -3 -16 -7 -26 -5 -12 -3
-15 6 -9 10 6 11 3 3 -12 -6 -10 -8 -24 -4 -30 4 -6 6 -49 4 -96 -3 -70 -6
-85 -19 -83 -8 1 -20 11 -25 21 -8 13 -7 16 1 11 14 -9 14 19 0 46 -8 15 -8
19 0 14 15 -10 14 17 -1 32 -9 9 -9 12 0 12 7 0 12 5 12 11 0 5 -4 7 -10 4 -6
-4 -10 29 -11 92 -1 59 -4 86 -8 68 -10 -42 -11 -803 -1 -840 4 -19 7 12 8 83
0 62 3 116 6 119 3 4 7 -7 8 -23 1 -16 5 12 8 61 l6 90 2 -82 c1 -45 6 -84 12
-88 5 -3 6 -13 3 -23 -3 -9 -3 -14 2 -10 9 9 13 38 14 127 1 56 3 62 16 51 11
-9 13 -16 6 -23 -7 -7 -7 -15 1 -25 9 -10 9 -18 1 -32 -9 -13 -9 -20 0 -29 9
-9 9 -16 -1 -31 -7 -12 -8 -21 -2 -25 6 -3 10 -22 10 -41 0 -19 5 -34 10 -34
7 0 7 -6 2 -17 -5 -10 -9 -42 -10 -72 0 -29 -4 -56 -7 -59 -9 -9 -26 13 -28
37 -1 11 -5 21 -10 21 -5 0 -5 -9 -2 -20 4 -13 2 -20 -7 -20 -10 0 -10 -2 1
-9 9 -6 10 -11 2 -15 -7 -4 -7 -15 -1 -31 8 -21 6 -23 -12 -20 -20 4 -20 4 -3
-15 10 -11 15 -23 12 -27 -4 -3 -7 0 -7 7 0 7 -2 11 -5 8 -8 -7 19 -53 32 -55
6 -1 11 14 11 37 0 22 6 48 12 57 11 17 11 17 6 -1 -6 -16 -4 -17 9 -6 8 7 15
19 15 27 0 8 5 11 10 8 6 -3 10 0 10 7 0 9 3 9 10 -2 6 -10 10 -11 10 -2 0 6
7 12 15 12 8 0 15 -4 15 -8 0 -11 69 -2 76 10 4 6 -3 8 -17 4 l-24 -6 23 11
c12 7 22 15 22 18 0 12 -15 26 -27 26 -7 0 -13 3 -13 8 0 4 0 16 0 28 0 11 4
18 9 14 6 -3 14 2 19 11 11 20 80 27 101 10 11 -8 13 -8 7 2 -4 7 -2 12 4 12
6 0 8 5 4 12 -4 7 -3 8 4 4 7 -4 12 -2 12 5 0 7 3 9 6 6 4 -4 1 -13 -6 -22 -7
-8 -9 -23 -5 -32 6 -16 8 -16 26 6 10 13 19 19 19 14 0 -5 -5 -14 -12 -21 -9
-9 -8 -12 5 -12 10 0 17 8 17 20 0 14 7 20 21 20 11 0 17 5 14 10 -4 7 70 9
217 8 123 -1 201 -4 173 -7 -43 -5 -38 -6 45 -11 l95 -6 -135 -3 c-90 -3 -123
-6 -100 -11 l35 -7 -35 -3 c-33 -2 -33 -3 -10 -10 18 -6 0 -9 -60 -11 l-85 -3
80 -6 80 -6 -96 -2 c-78 -2 -96 -5 -96 -17 0 -17 13 -20 22 -5 3 6 12 10 18 9
8 0 7 -3 -2 -6 -11 -5 -11 -7 0 -15 11 -8 11 -9 -2 -5 -9 3 -22 1 -30 -4 -9
-6 12 -9 61 -11 l75 -2 -95 -6 -95 -6 80 -4 c73 -3 76 -4 35 -10 -25 -4 -39
-8 -32 -8 7 -1 10 -7 6 -14 -5 -7 -2 -9 8 -5 11 4 15 1 13 -11 -2 -9 -4 -21
-4 -25 -1 -4 -11 -12 -23 -17 -22 -8 -22 -9 -2 -9 11 -1 24 3 30 7 10 10 111
32 134 30 8 -1 26 0 40 1 20 1 22 3 10 11 -10 7 -11 10 -2 10 7 0 15 -6 18
-14 3 -8 12 -12 21 -9 12 5 12 7 1 14 -9 6 -7 9 9 9 12 0 25 -5 29 -12 5 -7 3
-8 -6 -3 -8 5 -11 4 -7 -2 5 -8 26 -9 112 -4 17 1 17 3 5 11 -10 7 -11 10 -2
10 7 0 15 -6 17 -12 3 -8 21 -12 48 -11 66 3 240 -16 247 -28 4 -6 11 -4 20 6
11 13 8 15 -23 15 -28 0 -35 3 -31 15 4 8 20 16 38 16 29 2 28 2 -9 9 -32 6
-34 7 -12 9 16 0 25 5 22 11 -4 7 3 7 20 0 20 -8 27 -7 31 5 12 30 -4 48 -36
41 -17 -3 -30 -1 -30 4 0 6 -12 11 -27 11 l-28 2 30 6 c17 3 -33 8 -110 11
l-140 6 160 3 c105 3 146 6 120 11 -38 7 -38 7 18 9 37 0 56 -3 52 -9 -12 -20
6 -51 28 -48 17 2 22 10 22 31 -1 26 1 27 60 28 33 1 71 0 84 -1 13 -1 28 4
33 12 7 10 11 10 15 1 2 -7 13 -13 24 -13 13 0 19 7 19 24 0 20 -6 26 -32 29
-18 2 6 4 54 4 48 0 85 -4 82 -8 -3 -5 5 -9 18 -10 13 0 17 -3 11 -6 -8 -2
-13 -22 -13 -44 0 -30 -4 -39 -17 -40 -17 -1 -17 -2 0 -6 9 -2 17 -11 17 -19
0 -8 -8 -15 -17 -15 -17 -1 -17 -2 0 -6 9 -2 15 -9 11 -14 -3 -5 -10 -7 -15
-3 -14 8 -6 -19 9 -31 10 -8 2 -10 -26 -7 -27 3 -41 -1 -44 -10 -4 -9 2 -14
15 -16 17 -1 19 1 7 8 -9 6 -10 10 -3 10 23 0 24 -20 1 -29 -23 -10 -23 -10 4
-10 22 -1 26 3 23 19 -4 21 19 28 30 10 4 -6 11 -8 16 -5 5 4 9 1 9 -4 0 -6
-6 -11 -12 -12 -10 0 -10 -2 0 -6 6 -2 12 -11 12 -18 0 -8 4 -16 8 -19 5 -3 8
7 7 22 -2 34 2 42 19 36 7 -3 12 -17 11 -32 -2 -15 0 -19 2 -9 4 18 5 18 21 0
32 -35 48 -25 43 27 -2 12 0 13 7 1 5 -7 7 -22 5 -32 -4 -16 0 -19 26 -19 25
0 31 -4 31 -22 0 -19 2 -20 10 -8 9 13 10 13 10 0 0 -13 1 -13 10 0 8 12 10
12 10 1 0 -9 4 -10 13 -4 6 5 19 9 27 8 8 -1 23 2 32 7 9 4 18 4 20 -2 2 -5 8
2 15 15 6 14 7 23 2 19 -5 -3 -9 5 -8 18 0 13 3 17 6 10 2 -6 9 -10 13 -7 10
6 35 -34 27 -42 -3 -2 -1 -18 3 -34 5 -17 5 -29 -1 -29 -5 0 -9 8 -9 18 0 14
-2 15 -10 2 -5 -8 -10 -10 -10 -3 0 6 -8 10 -17 9 -10 -2 -21 2 -25 8 -5 7 -8
4 -8 -6 0 -10 3 -18 8 -18 11 0 13 -58 1 -65 -5 -4 -18 -3 -29 0 -15 5 -20 14
-18 33 3 23 -1 27 -24 28 -19 1 -28 -4 -28 -14 0 -12 -3 -12 -15 -2 -10 9 -15
9 -15 1 0 -6 -7 -11 -15 -11 -21 0 -19 -13 5 -35 12 -10 28 -15 42 -12 13 3
43 2 68 -2 30 -4 54 -2 72 7 23 11 31 11 53 -4 26 -17 42 -14 30 5 -3 6 -11 8
-17 5 -7 -4 -8 -2 -4 4 9 16 36 15 36 0 0 -6 6 -4 13 6 7 10 22 16 33 14 11
-2 18 2 17 9 -2 7 4 10 12 7 23 -9 9 -22 -63 -58 -184 -93 -337 -140 -500
-156 -53 -5 -248 -9 -432 -8 l-335 2 355 7 c343 6 414 11 426 30 3 5 34 9 69
9 38 0 65 4 67 11 2 6 23 11 46 11 25 -1 40 3 36 9 -3 5 -1 16 5 23 9 11 8 18
-4 30 -14 13 -19 14 -38 2 -12 -7 -39 -12 -59 -11 -20 1 -35 -2 -32 -7 3 -4 0
-8 -7 -8 -8 0 -9 11 -5 33 3 17 3 28 -2 22 -4 -5 -18 -11 -32 -11 -97 -5 -97
-5 -70 -15 19 -6 16 -7 -15 -4 -22 3 -50 6 -62 7 -13 1 -23 7 -23 13 0 7 -3 7
-8 0 -9 -14 -45 -14 -54 0 -5 6 -8 5 -8 -4 0 -10 -3 -11 -14 -2 -11 9 -16 9
-21 0 -6 -8 -10 -7 -16 2 -7 12 -9 12 -9 0 0 -11 -3 -11 -16 0 -9 7 -32 14
-51 14 -19 1 -39 8 -44 16 -6 10 -9 11 -9 1 0 -9 -5 -10 -17 -4 -10 5 -26 8
-35 7 -10 -2 -18 0 -18 3 0 4 -33 7 -72 6 -40 -1 -79 3 -85 9 -9 6 -13 5 -13
-4 0 -12 -2 -12 -9 -1 -4 8 -11 13 -15 13 -22 -3 -36 0 -32 7 3 5 -1 9 -9 9
-8 0 -15 -3 -15 -7 0 -4 -7 -7 -15 -7 -8 0 -15 5 -15 11 0 6 -4 5 -9 -2 -7
-11 -9 -10 -14 3 -5 12 -11 14 -26 6 -10 -6 -21 -7 -25 -3 -4 3 -12 0 -17 -8
-9 -13 -10 -13 -6 1 4 13 -4 15 -57 12 -33 -2 -67 -5 -73 -8 -7 -2 -13 3 -13
13 -1 12 -6 8 -16 -11 -13 -24 -18 -27 -32 -15 -9 7 -13 8 -9 2 4 -7 0 -15 -9
-18 -10 -4 -13 -2 -8 6 4 7 3 8 -4 4 -7 -4 -12 -22 -13 -39 0 -26 -2 -28 -8
-12 -5 11 -6 25 -3 30 3 6 2 7 -3 3 -4 -4 -14 -3 -20 2 -9 8 -15 6 -19 -6 -4
-9 -4 -19 -1 -22 3 -3 5 0 5 6 0 7 5 12 11 12 5 0 7 -5 3 -12 -4 -7 -3 -8 4
-4 7 4 12 1 12 -6 0 -9 -12 -14 -35 -14 -23 0 -35 5 -35 14 0 7 4 11 8 8 5 -3
9 1 9 9 0 8 -4 12 -8 9 -4 -2 -14 5 -22 16 -7 11 -17 17 -20 14 -3 -4 2 -14
13 -23 13 -12 16 -21 10 -36 -8 -18 -9 -18 -10 5 l-2 25 -8 -25 c-4 -14 -9
-18 -10 -10 -4 34 -11 64 -16 69 -3 3 -4 -5 -2 -19 2 -19 -1 -24 -14 -22 -12
2 -18 -4 -18 -16 0 -10 -7 -19 -15 -19 -8 0 -15 7 -15 14 0 8 5 11 12 7 7 -4
8 -3 4 5 -9 14 -26 5 -26 -13 0 -7 -7 -13 -15 -13 -8 0 -15 3 -15 7 0 4 -7 7
-15 7 -8 0 -15 -7 -15 -16 0 -9 -3 -12 -8 -6 -4 6 -69 10 -157 10 -104 0 -149
3 -148 11 3 14 -69 7 -78 -8 -4 -6 -12 -7 -18 -4 -6 4 -11 2 -11 -3 0 -6 -4
-11 -9 -11 -21 0 -33 67 -36 205 -2 110 -6 150 -16 156 -11 7 -11 9 1 9 13 0
13 1 0 10 -8 5 -10 10 -4 10 7 0 11 22 11 58 0 32 3 64 8 72 5 7 4 11 -1 7 -5
-3 -8 17 -6 46 5 80 2 198 -4 208 -3 5 1 9 8 9 9 0 10 3 2 8 -6 4 -9 16 -7 27
2 11 4 25 3 30 -6 92 -4 232 5 237 6 5 5 8 -3 8 -7 0 -11 4 -7 9 3 5 1 12 -5
16 -6 4 -10 -15 -11 -52 0 -32 -2 -119 -4 -193 -8 -259 -9 -425 -3 -435 3 -6
5 -31 3 -57 -1 -26 2 -45 6 -42 5 3 9 -4 9 -15 0 -12 -5 -21 -11 -21 -5 0 -7
5 -3 12 4 6 3 8 -3 5 -5 -3 -10 -32 -10 -64 l0 -58 7 50 7 50 2 -65 c2 -36 5
-85 8 -110 4 -42 5 -81 3 -122 -1 -10 -5 -20 -11 -23 -5 -4 -8 23 -6 67 2 40
1 84 -3 98 -4 14 -7 -31 -8 -99 -1 -68 -5 -135 -8 -148 -4 -16 -2 -28 7 -34
11 -7 11 -9 -3 -9 -9 0 -23 -3 -32 -6 -15 -6 -16 78 -16 904 l0 910 573 -4
c314 -2 734 -6 932 -9z m-808 -287 c-3 -8 -6 -5 -6 6 -1 11 2 17 5 13 3 -3 4
-12 1 -19z m48 -12 c7 3 16 1 20 -5 4 -7 -2 -10 -16 -8 -13 2 -24 9 -25 16 -1
6 0 7 2 2 3 -6 11 -8 19 -5z m-81 -42 c3 -8 2 -12 -4 -9 -6 3 -10 10 -10 16 0
14 7 11 14 -7z m-146 -141 c-32 -2 -84 -2 -115 0 -32 2 -6 3 57 3 63 0 89 -1
58 -3z m65 -20 c3 -5 -40 -7 -95 -5 -81 3 -98 1 -92 -10 6 -10 4 -10 -9 1 -15
12 -17 11 -17 -8 0 -11 -5 -21 -11 -21 -6 0 -9 9 -6 19 3 13 -1 21 -12 24 -9
3 41 5 111 6 70 0 129 -2 131 -6z m-266 -45 c0 -23 5 -44 11 -46 17 -5 15 -19
-3 -19 -8 0 -15 10 -16 21 0 12 -3 15 -6 9 -2 -7 -9 -13 -15 -13 -6 0 -6 6 2
15 7 8 9 15 4 15 -4 0 -3 5 4 12 16 16 15 31 0 22 -9 -5 -9 -2 1 9 7 9 14 17
16 17 1 0 2 -19 2 -42z m177 17 c-4 -8 -10 -15 -16 -15 -5 0 -6 5 -3 10 4 6
-5 10 -20 10 -15 0 -24 -4 -20 -10 3 -5 -1 -10 -9 -10 -10 0 -13 6 -10 15 4
10 20 15 45 15 30 0 37 -3 33 -15z m69 8 c-7 -2 -19 -2 -25 0 -7 3 -2 5 12 5
14 0 19 -2 13 -5z m1064 -38 c0 -8 -4 -12 -9 -9 -5 3 -6 10 -3 15 9 13 12 11
12 -6z m-1267 1 c0 -2 -8 -10 -17 -17 -16 -13 -17 -12 -4 4 13 16 21 21 21 13z
m94 -4 c3 -5 -1 -9 -9 -9 -8 0 -12 4 -9 9 3 4 7 8 9 8 2 0 6 -4 9 -8z m-158
-84 c-1 -13 -6 -22 -9 -20 -7 2 -7 10 0 30 8 20 13 14 9 -10z m413 2 c-6 -5
-18 -6 -26 -3 -19 8 -16 11 13 11 17 0 22 -3 13 -8z m943 -17 c-3 -16 -7 -22
-10 -15 -4 13 4 42 11 42 2 0 2 -12 -1 -27z m515 21 c-3 -3 -12 -4 -19 -1 -8
3 -5 6 6 6 11 1 17 -2 13 -5z m-1517 -49 c0 -8 -8 -15 -17 -14 -13 0 -14 2 -4
6 11 5 11 7 0 14 -11 7 -10 9 4 9 9 0 17 -7 17 -15z m1082 8 c-6 -2 -10 -9 -6
-14 3 -5 -1 -9 -9 -9 -7 0 -14 7 -14 15 0 9 9 15 21 14 12 0 15 -3 8 -6z
m-1516 -36 c-2 -7 -6 -20 -11 -30 -4 -10 -2 -23 4 -31 7 -8 8 -17 3 -20 -16
-10 -22 6 -22 62 0 46 2 53 14 43 8 -7 13 -17 12 -24z m81 18 c0 -8 -4 -12 -9
-9 -4 3 -8 9 -8 15 0 5 4 9 8 9 5 0 9 -7 9 -15z m63 11 c0 -3 -4 -8 -10 -11
-5 -3 -10 -1 -10 4 0 6 5 11 10 11 6 0 10 -2 10 -4z m1193 -19 c3 -8 -3 -13
-17 -14 -11 0 -15 1 -7 4 11 5 11 7 0 14 -11 7 -11 9 2 9 9 0 19 -6 22 -13z
m321 2 c-2 -4 2 -10 8 -12 7 -3 4 -6 -8 -6 -11 -1 -21 5 -21 12 0 8 6 14 13
14 7 0 11 -4 8 -8z m-1084 -29 c8 -15 8 -18 -3 -14 -8 3 -14 11 -14 19 0 20 4
19 17 -5z m768 -7 c-10 -2 -26 -2 -35 0 -10 3 -2 5 17 5 19 0 27 -2 18 -5z
m-1401 -30 c1 -24 0 -25 -6 -8 -7 17 -6 35 2 35 2 0 3 -12 4 -27z m20 -5 c-3
-8 -6 -5 -6 6 -1 11 2 17 5 13 3 -3 4 -12 1 -19z m730 7 c0 -8 -4 -12 -9 -9
-5 3 -6 10 -3 15 9 13 12 11 12 -6z m583 6 c0 -6 -4 -12 -8 -15 -5 -3 -9 1 -9
9 0 8 4 15 9 15 4 0 8 -4 8 -9z m598 2 c-10 -2 -28 -2 -40 0 -13 2 -5 4 17 4
22 1 32 -1 23 -4z m112 -9 c0 -8 -19 -13 -24 -6 -3 5 1 9 9 9 8 0 15 -2 15 -3z
m-190 -19 c0 -8 -4 -15 -10 -15 -5 0 -7 7 -4 15 4 8 8 15 10 15 2 0 4 -7 4
-15z m-1376 -37 c-1 -13 -3 -32 -3 -43 -1 -17 -3 -17 -11 -5 -6 9 -6 18 0 24
6 6 5 15 -1 23 -9 9 -8 13 0 13 7 0 9 5 5 12 -4 6 -3 8 3 5 5 -3 9 -16 7 -29z
m700 20 c-3 -4 4 -8 15 -8 11 0 23 -4 26 -10 4 -6 -1 -7 -12 -3 -15 6 -16 4
-5 -9 15 -18 2 -31 -21 -22 -19 7 -28 61 -10 61 6 0 10 -4 7 -9z m149 5 c-7
-2 -19 -2 -25 0 -7 3 -2 5 12 5 14 0 19 -2 13 -5z m902 -32 c-2 -9 -4 -18 -4
-20 -1 -3 -7 4 -15 15 -10 14 -11 22 -4 32 13 16 28 -1 23 -27z m-1520 -1 c-5
-8 -11 -8 -17 -2 -6 6 -7 16 -3 22 5 8 11 8 17 2 6 -6 7 -16 3 -22z m-82 13
c-13 -2 -33 -2 -45 0 -13 2 -3 4 22 4 25 0 35 -2 23 -4z m104 -15 c-3 -8 -6
-5 -6 6 -1 11 2 17 5 13 3 -3 4 -12 1 -19z m35 13 c8 11 9 11 6 1 -4 -16 -22
-18 -24 -2 -2 7 -1 6 3 -1 4 -8 8 -7 15 2z m338 5 c0 -2 -8 -10 -17 -17 -16
-13 -17 -12 -4 4 13 16 21 21 21 13z m41 -19 c-10 -9 -11 -8 -5 6 3 10 9 15
12 12 3 -3 0 -11 -7 -18z m134 13 c3 -6 -1 -7 -9 -4 -18 7 -21 14 -7 14 6 0
13 -4 16 -10z m58 -3 c3 -8 0 -14 -7 -14 -7 0 -13 6 -13 14 0 7 4 13 8 13 4 0
9 -6 12 -13z m507 -7 c0 -11 -4 -20 -9 -20 -5 0 -7 9 -4 20 3 11 7 20 9 20 2
0 4 -9 4 -20z m-575 -21 c-4 -5 -14 -9 -23 -10 -11 -1 -8 -4 8 -9 22 -7 22 -8
4 -9 -30 -1 -37 10 -16 29 17 18 37 17 27 -1z m-138 -6 c-9 -2 -15 -8 -13 -12
3 -4 -10 -7 -27 -8 -26 0 -27 0 -7 4 23 5 24 6 5 14 -15 6 -10 7 20 7 22 0 32
-2 22 -5z m221 0 c-10 -2 -18 -9 -18 -14 0 -5 -10 -8 -22 -8 -21 1 -21 2 -3 7
l20 5 -20 8 c-15 6 -10 7 20 7 22 0 32 -2 23 -5z m-665 -20 c-7 -2 -19 -2 -25
0 -7 3 -2 5 12 5 14 0 19 -2 13 -5z m124 1 c-3 -3 -12 -4 -19 -1 -8 3 -5 6 6
6 11 1 17 -2 13 -5z m96 -1 c-13 -2 -35 -2 -50 0 -16 2 -5 4 22 4 28 0 40 -2
28 -4z m82 -13 c0 -12 20 -15 118 -15 64 0 117 -3 117 -7 0 -5 -87 -7 -192 -6
-139 1 -172 3 -118 8 41 4 66 8 55 9 l-20 2 20 8 c19 8 18 9 -5 14 l-25 5 25
-1 c15 -1 25 -8 25 -17z m58 5 c-1 -5 -10 -11 -20 -12 -15 -2 -15 -1 2 6 19 8
19 9 -5 14 l-25 5 25 -1 c14 -1 24 -6 23 -12z m171 6 c3 -4 -6 -6 -19 -3 -14
2 -25 6 -25 8 0 8 39 4 44 -5z m-397 -26 c0 -8 -4 -12 -9 -9 -5 3 -6 10 -3 15
9 13 12 11 12 -6z m81 8 c-10 -2 -28 -2 -40 0 -13 2 -5 4 17 4 22 1 32 -1 23
-4z m349 -8 c0 -8 -4 -12 -9 -9 -5 3 -6 10 -3 15 9 13 12 11 12 -6z m-499 -12
c-10 -2 -28 -2 -40 0 -13 2 -5 4 17 4 22 1 32 -1 23 -4z m435 -20 c-18 -2 -48
-2 -65 0 -18 2 -4 4 32 4 36 0 50 -2 33 -4z m195 0 c-10 -2 -28 -2 -40 0 -13
2 -5 4 17 4 22 1 32 -1 23 -4z m129 0 c-9 -2 -15 -9 -12 -14 4 -5 -2 -10 -12
-10 -31 -2 -45 2 -60 17 -13 12 -7 14 44 13 32 -1 50 -3 40 -6z m-1350 -25
c-3 -8 -6 -5 -6 6 -1 11 2 17 5 13 3 -3 4 -12 1 -19z m1258 -41 c-8 -13 -13
-27 -10 -30 3 -4 -1 -3 -7 3 -7 5 -22 10 -34 10 -12 0 -24 7 -27 14 -5 12 5
16 41 19 26 2 48 4 50 5 1 1 -4 -8 -13 -21z m50 -27 c3 -6 -1 -7 -9 -4 -18 7
-21 14 -7 14 6 0 13 -4 16 -10z m772 -10 c4 -12 3 -12 -5 -2 -7 11 -11 9 -15
-8 -4 -14 -10 -19 -18 -14 -9 5 -10 2 -6 -9 3 -10 2 -17 -3 -17 -6 0 -10 12
-10 26 0 20 4 25 16 20 12 -5 15 -2 10 10 -4 11 -1 14 11 12 9 -2 18 -10 20
-18z m25 -63 l-10 -52 -1 70 c0 53 2 66 10 52 7 -12 7 -35 1 -70z m-755 41
c-3 -8 -6 -5 -6 6 -1 11 2 17 5 13 3 -3 4 -12 1 -19z m713 -73 c0 -33 -4 -45
-15 -45 -18 0 -20 20 -2 20 6 0 4 5 -5 11 -20 11 -24 34 -6 45 6 4 8 3 4 -4
-3 -6 -2 -13 4 -17 5 -3 10 3 10 14 0 12 2 21 5 21 3 0 5 -20 5 -45z m-1765
-5 c4 -6 11 -7 17 -4 7 4 8 2 4 -4 -4 -7 -17 -12 -29 -11 -13 0 -16 3 -8 6 11
5 11 7 0 14 -9 6 -10 9 -2 9 6 0 15 -5 18 -10z m50 -10 c3 -5 1 -10 -4 -10 -6
0 -11 5 -11 10 0 6 2 10 4 10 3 0 8 -4 11 -10z m1755 -37 c0 -21 -3 -24 -9
-14 -5 8 -7 20 -4 28 8 21 13 15 13 -14z m-1317 10 c-13 -2 -33 -2 -45 0 -13
2 -3 4 22 4 25 0 35 -2 23 -4z m657 -25 c0 -9 4 -8 10 2 6 9 10 10 10 3 0 -19
-14 -22 -35 -7 -16 12 -17 14 -2 14 9 0 17 -6 17 -12z m-1423 -40 c-3 -8 -6
-5 -6 6 -1 11 2 17 5 13 3 -3 4 -12 1 -19z m861 5 c-10 -2 -26 -2 -35 0 -10 3
-2 5 17 5 19 0 27 -2 18 -5z m155 0 c-23 -2 -64 -2 -90 0 -26 2 -7 3 42 3 50
0 71 -1 48 -3z m-1054 -67 c-3 -3 -11 5 -18 17 -13 21 -12 21 5 5 10 -10 16
-20 13 -22z m534 27 c-13 -2 -33 -2 -45 0 -13 2 -3 4 22 4 25 0 35 -2 23 -4z
m370 0 c-7 -2 -21 -2 -30 0 -10 3 -4 5 12 5 17 0 24 -2 18 -5z m-375 -20 c-10
-2 -28 -2 -40 0 -13 2 -5 4 17 4 22 1 32 -1 23 -4z m170 -58 c-7 -7 -138 -10
-138 -4 0 13 104 26 123 16 10 -5 17 -10 15 -12z m52 3 c0 -13 -23 -5 -28 10
-2 7 2 10 12 6 9 -3 16 -11 16 -16z m55 2 c3 -5 -3 -10 -15 -10 -12 0 -18 5
-15 10 3 6 10 10 15 10 5 0 12 -4 15 -10z m50 0 c-3 -5 -11 -10 -16 -10 -6 0
-7 5 -4 10 3 6 11 10 16 10 6 0 7 -4 4 -10z m30 0 c3 -5 1 -10 -4 -10 -6 0
-11 5 -11 10 0 6 2 10 4 10 3 0 8 -4 11 -10z m1032 -12 c-3 -8 -6 -5 -6 6 -1
11 2 17 5 13 3 -3 4 -12 1 -19z m-940 5 c-10 -9 -67 -11 -61 -1 3 4 19 8 36 8
17 0 28 -3 25 -7z m-464 -20 c-7 -2 -19 -2 -25 0 -7 3 -2 5 12 5 14 0 19 -2
13 -5z m271 -2 c3 -4 -6 -6 -19 -3 -14 2 -25 6 -25 8 0 8 39 4 44 -5z m993
-33 c-3 -8 -6 -5 -6 6 -1 11 2 17 5 13 3 -3 4 -12 1 -19z m60 -10 c1 -30 1
-31 -6 -8 -7 21 -5 40 2 40 2 0 3 -15 4 -32z m-130 7 c0 -8 -4 -12 -9 -9 -5 3
-6 10 -3 15 9 13 12 11 12 -6z m412 -23 c-4 -2 -5 -11 -2 -20 4 -13 3 -14 -5
-4 -5 7 -7 25 -4 40 5 24 6 24 12 7 4 -11 4 -21 -1 -23z m-392 6 c-3 -8 -6 -5
-6 6 -1 11 2 17 5 13 3 -3 4 -12 1 -19z m-1170 -200 c-3 -7 -5 -2 -5 12 0 14
2 19 5 13 2 -7 2 -19 0 -25z m-180 0 c-3 -8 -6 -5 -6 6 -1 11 2 17 5 13 3 -3
4 -12 1 -19z m20 0 c-3 -8 -6 -5 -6 6 -1 11 2 17 5 13 3 -3 4 -12 1 -19z m-42
-118 c-2 -4 2 -7 10 -7 8 0 12 4 9 9 -3 4 0 8 5 8 6 0 11 -4 11 -10 0 -12 22
-9 32 5 5 6 8 4 8 -5 0 -13 1 -13 10 0 6 9 10 10 10 3 0 -6 9 -10 20 -8 11 2
22 0 24 -4 3 -4 -50 -8 -117 -9 -67 -1 -230 -5 -362 -8 -132 -4 -238 -4 -235
-1 3 3 52 7 108 8 56 1 99 5 97 10 -3 4 -13 5 -22 2 -11 -4 -14 -2 -9 5 5 8
67 11 206 10 109 -1 197 -4 195 -8z m182 -16 c-3 -3 -12 -4 -19 -1 -8 3 -5 6
6 6 11 1 17 -2 13 -5z m1413 -688 c0 -2 -8 -10 -17 -17 -16 -13 -17 -12 -4 4
13 16 21 21 21 13z m-12596 -1076 l9451 0 -3 -1037 -3 -1038 -8152 -3 c-4484
-2 -8756 0 -9494 4 l-1343 6 0 1041 0 1040 46 -7 c26 -3 4300 -6 9498 -6z
m11335 -1860 l-4 -1860 -9487 0 -9488 0 0 380 0 380 7713 0 c7226 0 9709 4
9852 15 208 16 372 167 405 371 6 36 10 557 10 1317 l0 1257 501 0 502 0 -4
-1860z"/>
<path d="M27020 7980 c0 -5 7 -7 15 -4 8 4 15 8 15 10 0 2 -7 4 -15 4 -8 0
-15 -4 -15 -10z"/>
<path d="M26819 7928 c-1 -17 -3 -18 -6 -6 -4 16 -6 16 -19 4 -20 -21 -19 -24
33 -71 36 -34 53 -42 79 -41 18 1 30 -3 26 -8 -3 -5 2 -7 11 -3 12 4 15 1 12
-14 -2 -11 0 -17 6 -14 5 4 9 2 9 -3 0 -6 7 -13 16 -16 8 -3 13 -2 10 2 -3 5
1 9 9 9 8 0 12 -4 9 -9 -3 -4 1 -8 9 -8 7 0 19 -12 26 -26 6 -15 14 -24 17
-21 4 3 24 -5 45 -19 21 -13 41 -24 45 -24 3 0 17 -9 31 -20 14 -11 29 -17 34
-15 11 7 -23 65 -39 65 -7 0 -23 10 -36 23 -13 12 -33 29 -45 37 -11 8 -21 18
-21 23 0 12 -67 76 -74 70 -3 -4 -6 -1 -6 6 0 20 -27 43 -33 28 -4 -9 -6 -9
-6 1 -1 7 -5 11 -10 8 -5 -3 -14 1 -21 9 -9 11 -17 12 -31 4 -13 -7 -19 -6
-19 1 0 6 -6 8 -12 4 -10 -6 -10 -5 0 8 10 13 9 15 -13 13 -14 -2 -23 1 -20 5
3 5 1 11 -5 15 -6 3 -11 -4 -11 -17z"/>
<path d="M26601 7935 c-1 -6 -13 -12 -28 -13 -15 -1 -30 -8 -35 -15 -4 -6 -8
-7 -8 -2 0 6 -24 10 -55 10 -30 0 -55 -3 -55 -7 0 -10 36 -29 43 -22 3 3 37 7
76 9 77 3 91 8 91 33 0 13 -2 14 -9 3 -7 -11 -9 -11 -14 0 -3 8 -6 9 -6 4z"/>
<path d="M26741 7924 c0 -11 3 -14 6 -6 3 7 2 16 -1 19 -3 4 -6 -2 -5 -13z"/>
<path d="M26758 7920 c-7 -24 -3 -38 8 -28 3 4 4 17 2 30 l-3 23 -7 -25z"/>
<path d="M27093 7920 c-15 -23 -1 -37 46 -45 30 -5 33 -4 21 10 -11 13 -15 13
-21 3 -6 -9 -9 -7 -9 8 0 33 -23 47 -37 24z"/>
<path d="M25666 7914 c-3 -8 -2 -12 4 -9 6 4 10 -9 10 -30 0 -20 4 -34 9 -31
5 3 7 16 3 28 -3 13 -1 19 5 15 6 -4 17 1 24 10 8 9 9 14 3 10 -7 -4 -17 0
-24 8 -16 19 -26 19 -34 -1z"/>
<path d="M26201 7908 c-1 -20 3 -26 17 -25 14 1 17 7 13 26 l-5 26 -6 -25 -7
-25 -5 25 -5 25 -2 -27z"/>
<path d="M26138 7908 c-5 -11 -2 -15 10 -14 9 2 18 9 20 17 3 12 2 12 -6 0 -8
-11 -10 -11 -14 0 -3 10 -6 9 -10 -3z"/>
<path d="M26244 7908 c4 -20 26 -21 26 -1 0 14 -2 15 -9 4 -6 -9 -10 -10 -14
-2 -4 8 -5 8 -3 -1z"/>
<path d="M26283 7900 c2 -30 22 -34 23 -5 l1 20 -5 -20 c-5 -18 -6 -18 -13 5
l-8 25 2 -25z"/>
<path d="M26320 7903 c0 -25 11 -35 27 -25 6 4 7 15 2 27 -5 13 -8 15 -8 5 -1
-13 -2 -13 -11 0 -8 12 -10 11 -10 -7z"/>
<path d="M26360 7914 c0 -16 21 -31 43 -31 18 0 21 6 9 22 -11 15 -32 17 -32
3 0 -9 -4 -8 -10 2 -5 8 -10 10 -10 4z"/>
<path d="M25771 7804 c0 -11 3 -14 6 -6 3 7 2 16 -1 19 -3 4 -6 -2 -5 -13z"/>
<path d="M25823 7805 c0 -8 4 -15 9 -15 4 0 8 7 8 15 0 8 -4 15 -8 15 -5 0 -9
-7 -9 -15z"/>
<path d="M27171 7804 c0 -11 3 -14 6 -6 3 7 2 16 -1 19 -3 4 -6 -2 -5 -13z"/>
<path d="M25158 7783 c7 -3 16 -2 19 1 4 3 -2 6 -13 5 -11 0 -14 -3 -6 -6z"/>
<path d="M26635 7750 c-3 -5 -1 -10 4 -10 6 0 11 5 11 10 0 6 -2 10 -4 10 -3
0 -8 -4 -11 -10z"/>
<path d="M26736 7735 c-16 -12 -17 -15 -4 -15 9 0 18 7 22 15 7 18 6 18 -18 0z"/>
<path d="M27210 7740 c0 -6 7 -10 15 -10 8 0 15 2 15 4 0 2 -7 6 -15 10 -8 3
-15 1 -15 -4z"/>
<path d="M26630 7719 c0 -5 5 -7 10 -4 6 3 10 8 10 11 0 2 -4 4 -10 4 -5 0
-10 -5 -10 -11z"/>
<path d="M27243 7705 c-10 -11 -10 -16 0 -22 24 -15 34 -11 29 13 -5 27 -12
29 -29 9z"/>
<path d="M25763 7703 c59 -2 155 -2 215 0 59 1 10 3 -108 3 -118 0 -167 -2
-107 -3z"/>
<path d="M26788 7683 c6 -2 18 -2 25 0 6 3 1 5 -13 5 -14 0 -19 -2 -12 -5z"/>
<path d="M25616 7661 c-3 -4 6 -6 19 -3 14 2 25 6 25 8 0 8 -39 4 -44 -5z"/>
<path d="M25671 7666 c2 -3 28 -6 57 -7 32 -2 51 -7 49 -13 -2 -6 -14 -12 -26
-12 -37 -2 -34 -12 3 -11 19 1 32 5 30 9 -3 4 3 8 13 8 11 0 23 4 29 9 5 5 27
11 49 14 22 2 -16 4 -84 5 -68 1 -122 0 -120 -2z"/>
<path d="M26053 7663 c15 -2 37 -2 50 0 12 2 0 4 -28 4 -27 0 -38 -2 -22 -4z"/>
<path d="M26603 7643 c9 -2 23 -2 30 0 6 3 -1 5 -18 5 -16 0 -22 -2 -12 -5z"/>
<path d="M26654 7641 c4 -5 0 -12 -6 -15 -9 -4 -8 -5 2 -5 33 2 44 -3 20 -11
-22 -7 -20 -8 15 -9 25 0 35 2 27 8 -8 4 -13 11 -13 15 3 21 -2 26 -25 26 -14
0 -23 -4 -20 -9z"/>
<path d="M25611 7630 c-9 -5 -4 -7 13 -7 29 0 32 2 13 10 -8 3 -20 2 -26 -3z"/>
<path d="M25671 7630 c-9 -5 -4 -7 13 -7 29 0 32 2 13 10 -8 3 -20 2 -26 -3z"/>
<path d="M25996 7632 c-3 -5 1 -9 9 -9 8 0 12 4 9 9 -3 4 -7 8 -9 8 -2 0 -6
-4 -9 -8z"/>
<path d="M26529 7638 c-6 -25 -6 -38 1 -38 12 0 20 29 10 35 -6 4 -10 5 -11 3z"/>
<path d="M26608 7623 c7 -3 16 -2 19 1 4 3 -2 6 -13 5 -11 0 -14 -3 -6 -6z"/>
<path d="M26918 7623 c7 -3 16 -2 19 1 4 3 -2 6 -13 5 -11 0 -14 -3 -6 -6z"/>
<path d="M25546 7598 c3 -5 10 -6 15 -3 13 9 11 12 -6 12 -8 0 -12 -4 -9 -9z"/>
<path d="M25586 7601 c-4 -5 -2 -12 3 -15 5 -4 12 -2 15 3 4 5 2 12 -3 15 -5
4 -12 2 -15 -3z"/>
<path d="M26898 7603 c7 -3 16 -2 19 1 4 3 -2 6 -13 5 -11 0 -14 -3 -6 -6z"/>
<path d="M26655 7580 c3 -5 8 -10 11 -10 2 0 4 5 4 10 0 6 -5 10 -11 10 -5 0
-7 -4 -4 -10z"/>
<path d="M26788 7583 c6 -2 18 -2 25 0 6 3 1 5 -13 5 -14 0 -19 -2 -12 -5z"/>
<path d="M26784 7558 c-4 -6 0 -16 9 -23 9 -7 13 -16 9 -20 -4 -5 -1 -5 6 -1
7 4 10 12 7 17 -4 5 -1 9 6 9 8 0 8 4 -1 15 -15 18 -26 19 -36 3z"/>
<path d="M25643 7543 c9 -2 23 -2 30 0 6 3 -1 5 -18 5 -16 0 -22 -2 -12 -5z"/>
<path d="M25767 7543 c18 -2 50 -2 70 0 21 2 7 4 -32 4 -38 0 -55 -2 -38 -4z"/>
<path d="M26003 7543 c9 -2 25 -2 35 0 9 3 1 5 -18 5 -19 0 -27 -2 -17 -5z"/>
<path d="M26943 7543 c9 -2 23 -2 30 0 6 3 -1 5 -18 5 -16 0 -22 -2 -12 -5z"/>
<path d="M25733 7523 c26 -2 67 -2 90 0 23 2 2 3 -48 3 -49 0 -68 -1 -42 -3z"/>
<path d="M26003 7523 c9 -2 25 -2 35 0 9 3 1 5 -18 5 -19 0 -27 -2 -17 -5z"/>
<path d="M26757 7523 c-10 -9 -9 -23 1 -23 5 0 9 7 9 15 0 17 -1 18 -10 8z"/>
<path d="M25900 7499 c0 -5 5 -7 11 -3 8 4 8 1 1 -13 -10 -17 -7 -19 31 -21
31 -2 38 0 27 8 -8 5 -10 10 -4 10 6 0 11 7 11 15 0 11 -11 15 -39 15 -21 0
-38 -5 -38 -11z"/>
<path d="M26048 7483 c7 -3 16 -2 19 1 4 3 -2 6 -13 5 -11 0 -14 -3 -6 -6z"/>
<path d="M26068 7463 c18 -2 45 -2 60 0 15 2 0 4 -33 4 -33 0 -45 -2 -27 -4z"/>
<path d="M26108 7443 c23 -2 61 -2 85 0 23 2 4 4 -43 4 -47 0 -66 -2 -42 -4z"/>
<path d="M25873 7421 c1 -11 5 -17 11 -14 5 4 7 -1 3 -10 -4 -11 -1 -17 9 -17
8 0 12 5 9 10 -3 6 -1 10 5 10 21 0 5 33 -17 36 -16 3 -21 -1 -20 -15z"/>
<path d="M26128 7423 c29 -2 74 -2 100 0 26 2 2 3 -53 3 -55 0 -76 -1 -47 -3z"/>
<path d="M26843 7423 c9 -2 23 -2 30 0 6 3 -1 5 -18 5 -16 0 -22 -2 -12 -5z"/>
<path d="M26157 7403 c18 -2 50 -2 70 0 21 2 7 4 -32 4 -38 0 -55 -2 -38 -4z"/>
<path d="M25910 7361 c0 -5 -8 -12 -17 -14 -11 -3 -8 -5 9 -6 20 -1 26 3 22
14 -7 17 -14 20 -14 6z"/>
<path d="M26022 7354 c-7 -8 -8 -14 -3 -14 10 0 25 19 20 25 -2 1 -10 -3 -17
-11z"/>
<path d="M25948 7343 c7 -3 16 -2 19 1 4 3 -2 6 -13 5 -11 0 -14 -3 -6 -6z"/>
<path d="M25933 7323 c9 -2 25 -2 35 0 9 3 1 5 -18 5 -19 0 -27 -2 -17 -5z"/>
<path d="M25033 7001 c0 -11 5 -18 9 -15 4 3 5 11 1 19 -7 21 -12 19 -10 -4z"/>
<path d="M25508 6963 c23 -2 61 -2 85 0 23 2 4 4 -43 4 -47 0 -66 -2 -42 -4z"/>
<path d="M25648 6963 c7 -3 16 -2 19 1 4 3 -2 6 -13 5 -11 0 -14 -3 -6 -6z"/>
<path d="M25753 6963 c9 -2 23 -2 30 0 6 3 -1 5 -18 5 -16 0 -22 -2 -12 -5z"/>
<path d="M25463 6943 c9 -2 25 -2 35 0 9 3 1 5 -18 5 -19 0 -27 -2 -17 -5z"/>
<path d="M25608 6943 c7 -3 16 -2 19 1 4 3 -2 6 -13 5 -11 0 -14 -3 -6 -6z"/>
<path d="M25613 6923 c9 -2 23 -2 30 0 6 3 -1 5 -18 5 -16 0 -22 -2 -12 -5z"/>
<path d="M25458 6863 c17 -2 47 -2 65 0 17 2 3 4 -33 4 -36 0 -50 -2 -32 -4z"/>
<path d="M25453 6843 c15 -2 39 -2 55 0 15 2 2 4 -28 4 -30 0 -43 -2 -27 -4z"/>
<path d="M25443 6823 c9 -2 25 -2 35 0 9 3 1 5 -18 5 -19 0 -27 -2 -17 -5z"/>
<path d="M26531 6796 c-6 -7 -8 -16 -4 -19 3 -4 -26 -7 -64 -7 -41 0 -73 -4
-75 -10 -2 -6 -13 -12 -25 -13 -12 0 -20 -3 -18 -5 9 -9 -17 -42 -27 -36 -7 5
-8 2 -3 -5 5 -9 -2 -12 -28 -10 -20 2 -39 0 -43 -4 -4 -4 18 -7 50 -7 55 0 57
1 63 30 3 17 11 29 17 27 6 -3 19 3 29 11 14 12 20 13 30 3 9 -9 7 -13 -11
-17 -26 -7 -29 -19 -5 -28 10 -4 14 -4 11 0 -4 3 7 18 23 32 21 17 33 22 41
14 7 -7 4 -13 -10 -21 -10 -6 -22 -8 -24 -5 -3 3 -8 -1 -11 -9 -3 -8 3 -13 14
-14 10 -1 19 2 19 8 0 5 5 9 11 9 7 0 17 7 23 15 8 11 15 12 26 4 13 -9 13
-10 -2 -6 -18 6 -33 -19 -18 -28 6 -4 10 -1 10 4 0 6 9 11 20 11 11 0 20 7 20
15 0 8 7 15 15 15 18 0 21 50 3 51 -7 0 -21 2 -30 4 -9 2 -22 -3 -27 -9z"/>
<path d="M25379 6798 c-8 -26 -5 -36 9 -31 10 4 13 2 8 -5 -5 -8 -2 -10 9 -5
13 5 14 7 3 14 -10 7 -10 9 2 9 13 0 13 1 0 10 -14 9 -29 13 -31 8z"/>
<path d="M25494 6766 c0 -13 4 -22 9 -19 4 2 7 -1 7 -7 0 -7 8 -9 20 -5 11 3
34 7 51 7 17 1 25 4 18 9 -8 5 -6 8 7 12 16 4 16 5 2 6 -9 0 -20 -3 -23 -9 -3
-5 -21 -10 -38 -9 -18 0 -26 3 -19 6 10 4 10 8 1 19 -18 22 -37 17 -35 -10z"/>
<path d="M26336 6772 c-3 -5 1 -9 9 -9 8 0 12 4 9 9 -3 4 -7 8 -9 8 -2 0 -6
-4 -9 -8z"/>
<path d="M26465 6740 c-3 -6 1 -7 9 -4 18 7 21 14 7 14 -6 0 -13 -4 -16 -10z"/>
<path d="M25658 6723 c7 -3 16 -2 19 1 4 3 -2 6 -13 5 -11 0 -14 -3 -6 -6z"/>
<path d="M25494 6688 c-3 -4 11 -8 30 -8 20 0 36 2 36 4 0 8 -61 12 -66 4z"/>
<path d="M25888 6668 c5 -20 15 -17 18 6 1 7 -4 13 -11 13 -7 0 -10 -8 -7 -19z"/>
<path d="M25957 6683 c-10 -9 -9 -23 1 -23 5 0 9 7 9 15 0 17 -1 18 -10 8z"/>
<path d="M26390 6681 c0 -6 5 -13 12 -17 6 -4 8 -3 4 4 -3 5 0 13 6 15 8 3 6
6 -4 6 -10 1 -18 -3 -18 -8z"/>
<path d="M26478 6683 c12 -2 30 -2 40 0 9 3 -1 5 -23 4 -22 0 -30 -2 -17 -4z"/>
<path d="M26633 6683 c9 -2 23 -2 30 0 6 3 -1 5 -18 5 -16 0 -22 -2 -12 -5z"/>
<path d="M26113 6674 c4 -4 2 -13 -4 -20 -7 -8 -7 -14 1 -19 5 -3 10 2 11 12
0 10 3 13 6 6 2 -7 9 -13 14 -13 14 0 -1 28 -19 35 -9 3 -13 3 -9 -1z"/>
<path d="M25715 6645 c2 -32 13 -43 21 -21 4 10 1 24 -7 32 -13 12 -15 11 -14
-11z"/>
<path d="M25762 6655 c-16 -19 -3 -19 22 0 14 11 16 15 5 15 -8 -1 -20 -7 -27
-15z"/>
<path d="M25830 6659 c0 -5 5 -7 10 -4 6 3 10 8 10 11 0 2 -4 4 -10 4 -5 0
-10 -5 -10 -11z"/>
<path d="M26053 6648 c-1 -10 5 -18 13 -18 8 0 14 8 14 18 0 10 -6 19 -13 19
-7 0 -14 -9 -14 -19z"/>
<path d="M26166 6655 c-3 -8 -1 -15 4 -15 6 0 10 5 10 11 0 5 5 7 10 4 6 -3
10 -1 10 4 0 17 -27 13 -34 -4z"/>
<path d="M26520 6660 l95 -6 -75 -4 c-73 -3 -74 -3 -25 -10 44 -5 46 -7 20
-11 -19 -4 -4 -7 38 -8 40 0 66 3 62 8 -3 5 7 12 22 14 25 4 25 4 -7 7 l-35 3
35 7 c21 4 -16 7 -95 7 l-130 -1 95 -6z"/>
<path d="M25937 6643 c-4 -3 -7 -11 -7 -17 0 -6 4 -5 9 3 6 8 14 10 22 5 20
-12 40 -14 33 -3 -3 5 -9 7 -14 4 -5 -3 -11 -1 -15 5 -7 12 -19 13 -28 3z"/>
<path d="M25655 6610 c-3 -6 1 -7 9 -4 18 7 21 14 7 14 -6 0 -13 -4 -16 -10z"/>
<path d="M25382 6593 c-12 -12 -8 -15 14 -12 4 0 11 -5 15 -13 7 -11 9 -11 9
0 0 7 -6 19 -13 26 -10 11 -15 10 -25 -1z"/>
<path d="M26664 6587 c-5 -12 -7 -26 -6 -32 1 -5 -5 -1 -13 9 -15 19 -15 19
-15 -1 0 -21 14 -25 38 -10 7 5 10 13 7 18 -4 5 4 7 17 5 13 -2 28 1 34 6 7 5
16 8 20 7 18 -3 34 1 34 9 0 5 -21 9 -47 11 -46 2 -47 1 -28 -15 19 -15 18
-15 -7 0 -26 15 -27 15 -34 -7z"/>
<path d="M25006 6591 c-4 -5 4 -15 16 -22 22 -12 22 -11 8 7 -8 10 -15 20 -16
22 -1 2 -5 -1 -8 -7z"/>
<path d="M25434 6579 c-3 -6 -3 -13 0 -16 3 -4 6 -1 6 5 0 7 5 12 11 12 5 0 7
-4 4 -10 -9 -14 1 -12 13 3 8 10 6 13 -8 14 -11 1 -22 -3 -26 -8z"/>
<path d="M25513 6577 c0 -8 6 -14 13 -14 7 0 10 6 7 14 -3 7 -8 13 -12 13 -4
0 -8 -6 -8 -13z"/>
<path d="M25660 6586 c0 -2 7 -7 16 -10 8 -3 12 -2 9 4 -6 10 -25 14 -25 6z"/>
<path d="M26595 6545 c0 -18 3 -21 13 -13 6 6 12 14 12 18 0 4 -6 10 -12 13
-8 3 -13 -4 -13 -18z"/>
<path d="M27145 6540 c-18 -7 -18 -8 8 -15 15 -4 31 -5 34 -1 4 3 -1 6 -11 6
-9 0 -14 5 -11 10 7 11 7 11 -20 0z"/>
<path d="M27068 6488 c5 -5 16 -8 23 -6 8 3 3 7 -10 11 -17 4 -21 3 -13 -5z"/>
<path d="M26803 6403 c9 -2 25 -2 35 0 9 3 1 5 -18 5 -19 0 -27 -2 -17 -5z"/>
<path d="M12019 27597 c-108 -36 -182 -97 -234 -192 -15 -27 -55 -113 -88
-190 -33 -77 -75 -176 -94 -220 -19 -44 -41 -96 -48 -115 -7 -19 -20 -48 -28
-65 -8 -16 -32 -70 -52 -120 -21 -49 -50 -118 -66 -153 -16 -34 -29 -65 -29
-69 0 -3 -12 -31 -26 -62 -15 -31 -59 -132 -99 -226 -40 -93 -82 -192 -94
-220 -13 -27 -35 -79 -51 -115 -76 -178 -91 -211 -126 -290 -20 -47 -48 -107
-61 -134 -12 -28 -23 -53 -23 -58 0 -4 -11 -31 -24 -60 -13 -29 -43 -98 -66
-153 -23 -55 -53 -124 -66 -153 -13 -29 -24 -55 -24 -57 0 -2 -13 -34 -30 -70
-16 -36 -30 -68 -30 -70 0 -2 -12 -30 -26 -62 -14 -32 -39 -89 -56 -128 -38
-87 -94 -216 -119 -272 -10 -24 -19 -45 -19 -48 0 -3 -16 -39 -35 -81 -19 -41
-35 -79 -35 -84 0 -4 -14 -39 -31 -76 -17 -38 -35 -78 -39 -89 -21 -49 -54
-124 -75 -170 -12 -27 -37 -86 -55 -130 -18 -44 -44 -104 -57 -133 -12 -29
-35 -80 -49 -115 -14 -34 -30 -66 -35 -72 -5 -5 -9 -16 -9 -24 0 -8 -13 -44
-29 -80 -47 -106 -77 -173 -174 -400 -51 -117 -96 -213 -101 -213 -5 1 -18 27
-28 59 -19 56 -114 272 -177 401 -17 34 -31 65 -31 68 0 7 -112 260 -288 654
-33 74 -65 146 -70 160 -12 31 -109 245 -168 368 -24 51 -44 96 -44 98 0 3
-41 96 -91 207 -50 111 -111 247 -136 302 -25 55 -67 147 -93 205 -27 58 -90
197 -140 310 -51 113 -106 233 -121 267 -16 34 -40 91 -55 125 -79 188 -134
257 -250 313 l-75 36 -532 -3 c-586 -3 -540 2 -649 -71 -228 -153 -250 -474
-46 -669 40 -38 81 -66 126 -84 l67 -28 316 -4 317 -3 57 -122 c32 -67 72
-156 90 -197 18 -41 41 -95 53 -120 11 -25 83 -187 160 -361 77 -174 149 -336
160 -360 82 -180 167 -372 267 -599 65 -146 132 -297 151 -337 18 -40 45 -100
60 -135 14 -35 34 -81 44 -103 98 -216 173 -382 248 -555 94 -214 185 -418
227 -508 14 -29 25 -54 25 -57 0 -2 15 -36 34 -77 18 -40 61 -136 96 -213 123
-276 148 -322 203 -378 102 -101 238 -144 380 -122 78 12 160 50 216 100 69
62 102 126 272 525 39 91 77 179 85 197 8 17 14 34 14 38 0 3 12 32 26 63 46
102 52 116 80 182 14 36 34 83 45 105 10 22 97 227 195 455 97 228 185 433
194 455 10 22 35 78 55 125 20 47 43 99 50 115 7 17 25 59 40 95 15 36 33 79
40 95 7 17 27 64 45 105 18 41 41 95 52 120 12 25 31 70 43 100 13 30 39 91
58 135 19 44 55 130 81 190 26 61 57 135 71 165 13 30 39 91 58 135 19 44 52
118 72 165 21 47 43 99 50 115 7 17 37 84 65 150 29 66 102 235 162 375 60
140 115 268 123 285 8 16 25 58 39 92 24 57 52 122 92 210 8 17 14 34 14 37 0
3 11 29 24 58 14 29 57 130 97 223 39 94 79 188 89 210 20 45 73 168 86 201
l9 22 4233 6 c2328 3 4337 8 4465 12 249 6 305 13 380 51 111 55 189 157 222
289 20 81 19 125 -3 205 -37 131 -111 223 -227 280 l-70 34 -4680 2 -4680 2
-66 -22z"/>
<path d="M13665 25491 c-145 -29 -279 -151 -324 -295 -47 -152 -24 -258 93
-434 54 -80 362 -521 500 -717 45 -63 179 -254 271 -385 39 -55 114 -161 168
-235 l98 -136 -53 -72 c-30 -40 -75 -103 -102 -142 -26 -38 -75 -108 -108
-155 -32 -47 -84 -121 -113 -165 -68 -100 -196 -280 -227 -319 -13 -16 -32
-44 -43 -62 -20 -33 -115 -169 -230 -329 -206 -288 -244 -352 -266 -457 -24
-112 20 -259 109 -359 115 -129 341 -173 499 -98 119 57 184 134 498 589 36
52 94 136 129 185 36 50 95 135 133 190 37 55 107 155 155 222 48 66 94 135
102 151 30 58 48 53 104 -29 35 -53 121 -175 241 -341 31 -42 88 -122 126
-178 39 -55 124 -176 189 -268 66 -92 134 -188 151 -213 129 -188 196 -257
302 -309 64 -32 74 -34 178 -34 107 -1 113 0 180 34 99 50 169 122 213 219 36
81 42 205 13 299 -27 89 -60 138 -587 883 -49 70 -127 181 -174 248 -47 67
-107 153 -135 192 -27 38 -81 115 -120 170 -38 56 -80 113 -92 126 -27 28 -27
28 -10 45 43 46 102 126 232 313 42 61 94 135 116 165 22 30 67 93 99 140 33
47 98 139 144 205 46 66 134 192 195 280 312 453 311 450 336 550 35 141 -21
329 -126 419 -144 123 -338 146 -493 60 -96 -54 -154 -120 -302 -339 -76 -114
-156 -229 -163 -235 -4 -3 -18 -23 -33 -45 -14 -22 -58 -85 -97 -140 -39 -55
-95 -136 -125 -180 -57 -82 -139 -198 -214 -301 -23 -32 -52 -74 -65 -93 -12
-19 -27 -36 -33 -38 -6 -2 -28 20 -48 49 -19 29 -61 87 -91 128 -31 41 -63 86
-73 100 -9 14 -66 95 -126 180 -291 411 -308 435 -452 645 -108 157 -197 251
-278 290 -49 24 -74 29 -145 31 -47 2 -104 -1 -126 -5z"/>
<path d="M7610 19820 c-770 -6 -725 -2 -833 -73 -113 -75 -184 -197 -194 -333
-15 -189 102 -370 280 -437 47 -17 93 -20 472 -27 819 -16 3306 -3 3340 17 11
6 42 22 70 34 74 34 177 142 204 213 87 234 2 462 -216 572 l-76 39 -1176 0
c-647 1 -1489 -2 -1871 -5z"/>
<path d="M17715 19818 c-126 -15 -251 -108 -316 -235 -119 -232 -6 -516 241
-603 90 -32 171 -33 1970 -34 l1816 -1 74 37 c125 61 215 171 245 299 19 82
19 126 -1 203 -34 132 -115 231 -242 293 l-76 38 -1030 2 c-567 1 -1386 4
-1821 6 -434 2 -821 -1 -860 -5z"/>
<path d="M6872 17790 c-35 -17 -67 -30 -72 -30 -5 0 -42 -33 -83 -72 -59 -59
-79 -87 -101 -143 -34 -84 -45 -192 -26 -262 20 -76 79 -179 125 -222 55 -50
167 -107 225 -115 80 -10 2125 -16 2935 -8 l790 7 64 34 c88 45 171 127 209
204 118 240 14 506 -239 610 l-54 22 -1855 2 -1855 2 -63 -29z"/>
<path d="M17680 17810 c-8 -5 -42 -21 -75 -36 -91 -42 -182 -139 -220 -234
-26 -65 -30 -88 -30 -171 0 -91 2 -99 39 -174 48 -98 112 -163 210 -213 l71
-36 940 -8 c517 -4 1363 -4 1881 0 l940 7 70 36 c129 68 205 161 238 290 22
82 20 148 -5 233 -44 149 -143 243 -312 300 -43 14 -223 16 -1890 15 -1077 0
-1848 -4 -1857 -9z"/>
<path d="M17795 15080 c-85 -13 -129 -28 -191 -69 -80 -52 -115 -92 -164 -186
l-42 -80 4 -115 c5 -144 23 -185 143 -320 164 -184 277 -335 352 -470 170
-305 248 -539 305 -910 17 -112 17 -486 0 -610 -21 -152 -82 -414 -113 -485
-4 -11 -23 -58 -40 -105 -57 -151 -180 -371 -284 -509 -22 -29 -47 -63 -55
-76 -8 -12 -51 -62 -96 -111 -123 -135 -138 -154 -175 -224 -33 -63 -34 -69
-34 -176 0 -106 1 -113 34 -178 48 -94 129 -175 216 -217 67 -32 75 -33 185
-34 112 0 117 1 183 35 72 37 155 111 273 245 90 102 239 301 289 385 21 36
44 72 50 80 11 14 75 131 130 240 200 392 317 871 332 1360 18 623 -144 1238
-469 1778 -83 139 -94 155 -182 278 -111 155 -323 379 -401 424 -75 43 -168
61 -250 50z"/>
<path d="M7734 15066 c-57 -15 -56 -15 -131 -63 -62 -41 -296 -291 -337 -361
-5 -8 -15 -22 -22 -31 -36 -43 -119 -162 -146 -206 -16 -27 -47 -79 -69 -115
-56 -92 -186 -360 -221 -455 -108 -293 -153 -462 -197 -740 -34 -210 -34 -645
0 -910 28 -226 102 -506 198 -750 108 -273 261 -545 449 -795 52 -70 261 -298
307 -335 22 -18 69 -48 105 -66 58 -30 75 -34 168 -37 101 -4 103 -4 178 32
93 46 141 89 194 172 55 88 74 166 66 274 -9 125 -56 206 -215 375 -189 201
-384 535 -480 822 -89 265 -116 444 -116 763 0 201 3 255 23 370 85 494 263
868 587 1235 90 103 130 156 161 215 27 52 29 62 29 181 0 123 -1 126 -35 194
-74 146 -205 232 -363 240 -49 2 -103 -1 -133 -9z"/>
<path d="M9175 14343 c-87 -14 -138 -30 -190 -61 -78 -46 -90 -56 -139 -122
-81 -109 -106 -256 -65 -378 20 -59 96 -190 160 -277 32 -43 167 -235 264
-375 32 -47 117 -167 189 -268 72 -101 138 -194 146 -208 17 -27 19 -21 -52
-113 -27 -34 -48 -64 -48 -67 0 -3 -27 -41 -59 -84 -33 -43 -65 -89 -72 -102
-7 -12 -34 -51 -61 -85 -26 -34 -48 -64 -48 -67 0 -9 -150 -223 -245 -350 -68
-91 -155 -229 -161 -254 -3 -15 -12 -42 -20 -60 -30 -69 -12 -198 41 -303 51
-100 163 -183 288 -214 105 -26 235 -8 316 44 94 61 138 114 386 471 51 74
121 173 154 220 34 47 74 104 91 128 17 23 36 42 43 42 7 0 21 -16 30 -36 10
-20 48 -77 86 -127 59 -80 126 -174 271 -381 189 -269 258 -328 422 -362 87
-18 88 -18 175 4 97 25 137 49 211 124 57 58 85 109 108 198 29 114 -3 262
-79 369 -21 28 -37 53 -37 56 0 2 -27 42 -59 87 -33 46 -74 104 -93 130 -18
26 -73 104 -123 174 -49 69 -124 174 -165 233 -116 166 -211 291 -221 291 -19
0 -6 24 54 99 34 43 94 124 132 180 39 56 100 143 136 194 65 92 121 172 238
342 193 279 221 337 221 458 0 163 -68 291 -198 374 -190 122 -441 74 -585
-113 -21 -27 -66 -89 -100 -138 -34 -49 -96 -137 -137 -196 -143 -206 -199
-285 -219 -310 -11 -14 -21 -30 -21 -36 0 -15 -39 -64 -50 -64 -5 0 -31 32
-57 72 -26 39 -58 85 -70 102 -78 109 -251 354 -323 458 -94 136 -137 183
-222 238 -54 35 -76 42 -208 64 -8 1 -24 1 -35 -1z"/>
<path d="M16570 14335 c-121 -33 -215 -100 -296 -210 -64 -87 -214 -306 -214
-311 0 -3 -22 -33 -48 -67 -56 -72 -169 -234 -195 -280 -39 -68 -55 -70 -84
-14 -9 18 -42 68 -74 112 -32 44 -103 143 -157 220 -287 408 -290 412 -357
462 -116 86 -256 114 -376 75 -162 -52 -263 -149 -308 -296 -48 -156 -15 -287
120 -471 16 -22 42 -58 57 -80 16 -22 95 -134 177 -250 82 -115 184 -259 227
-320 133 -188 162 -229 181 -244 21 -19 21 -23 -1 -47 -27 -30 -131 -174 -243
-338 -79 -116 -103 -150 -109 -156 -3 -3 -30 -40 -59 -83 -29 -43 -59 -86 -67
-95 -15 -18 -79 -111 -193 -278 -79 -117 -111 -201 -111 -289 0 -67 25 -153
64 -219 32 -55 122 -139 177 -165 83 -41 217 -61 282 -41 176 52 216 85 380
317 99 139 195 277 312 444 66 95 135 193 153 218 18 25 40 57 50 71 28 41
265 382 295 425 15 22 57 81 92 130 35 50 84 119 109 155 62 90 120 173 191
271 71 99 77 109 185 264 46 66 104 149 129 185 102 147 166 249 195 310 28
59 30 74 31 170 0 100 -2 108 -36 180 -44 93 -73 128 -146 176 -101 67 -236
95 -333 69z"/>
<path d="M12852 13948 c-157 -19 -303 -151 -348 -313 -10 -36 -14 -119 -14
-307 l0 -257 -278 1 -278 2 -69 -35 c-94 -46 -182 -134 -226 -224 -32 -67 -34
-75 -34 -180 0 -106 1 -113 34 -178 38 -76 129 -168 190 -194 20 -9 48 -21 62
-29 39 -20 211 -34 415 -34 l184 0 0 -248 c0 -280 6 -321 66 -421 44 -74 90
-115 176 -159 84 -42 142 -55 231 -51 140 8 280 105 357 249 l35 65 3 283 3
282 214 0 c117 0 247 5 288 10 303 42 470 352 336 621 -47 94 -115 159 -217
206 l-73 33 -274 0 -274 0 -3 283 -3 282 -28 59 c-52 112 -129 184 -245 231
-72 28 -137 35 -230 23z"/>
<path d="M20055 13890 c-74 -13 -153 -58 -221 -126 -48 -48 -67 -76 -90 -135
-26 -65 -29 -86 -28 -174 1 -90 4 -107 33 -169 48 -106 137 -186 251 -226 76
-27 194 -31 800 -28 623 4 625 4 679 27 80 33 137 78 191 150 54 72 90 174 90
255 0 57 -24 155 -50 207 -34 66 -119 148 -194 187 l-71 37 -670 2 c-368 0
-692 -3 -720 -7z"/>
<path d="M19967 12209 c-83 -42 -170 -121 -199 -180 -47 -98 -53 -123 -53
-224 0 -97 2 -104 38 -177 61 -124 160 -201 307 -239 45 -11 172 -13 695 -11
422 2 652 6 675 13 67 21 142 60 181 96 208 188 194 517 -28 679 -29 21 -71
45 -92 54 -22 8 -43 18 -47 23 -4 4 -320 7 -703 6 l-696 -1 -78 -39z"/>
</g>
</svg>
